<?xml version="1.0" encoding="UTF-8" standalone="no"?>
<svg
   xmlns:dc="http://purl.org/dc/elements/1.1/"
   xmlns:cc="http://creativecommons.org/ns#"
   xmlns:rdf="http://www.w3.org/1999/02/22-rdf-syntax-ns#"
   xmlns:svg="http://www.w3.org/2000/svg"
   xmlns="http://www.w3.org/2000/svg"
   xmlns:sodipodi="http://sodipodi.sourceforge.net/DTD/sodipodi-0.dtd"
   xmlns:inkscape="http://www.inkscape.org/namespaces/inkscape"
   width="1115.9995"
   height="531.54907"
   viewBox="0 18 279 104"
   version="1.1"
   id="svg8"
   sodipodi:docname="Nitor logo.svg"
   style="fill:none"
   inkscape:version="0.92.5 (2060ec1f9f, 2020-04-08)">
  <metadata
     id="metadata14">
    <rdf:RDF>
      <cc:Work
         rdf:about="">
        <dc:format>image/svg+xml</dc:format>
        <dc:type
           rdf:resource="http://purl.org/dc/dcmitype/StillImage" />
        <dc:title></dc:title>
      </cc:Work>
    </rdf:RDF>
  </metadata>
  <defs
     id="defs12" />
  <sodipodi:namedview
     pagecolor="#ffffff"
     bordercolor="#666666"
     borderopacity="1"
     objecttolerance="10"
     gridtolerance="10"
     guidetolerance="10"
     inkscape:pageopacity="0"
     inkscape:pageshadow="2"
     inkscape:window-width="1920"
     inkscape:window-height="1000"
     id="namedview10"
     showgrid="false"
     inkscape:pagecheckerboard="true"
     fit-margin-top="0"
     fit-margin-left="0"
     fit-margin-right="0"
     fit-margin-bottom="0"
     inkscape:zoom="0.53588673"
     inkscape:cx="603.29491"
     inkscape:cy="248.86251"
     inkscape:window-x="1920"
     inkscape:window-y="0"
     inkscape:window-maximized="1"
     inkscape:current-layer="svg8" />
  <g
     id="g19"
     transform="translate(2.4999999,1.3872646)">
    <path
       id="path2"
       d="m 41.62,75.95 v 29.603 c 0,0.82 -1.031,1.18 -1.543,0.541 L 14.914,74.479 A 3.473,3.473 0 0 0 12.205,73.177 H 2.775 A 2.774,2.774 0 0 0 0,75.95 v 49.929 a 2.774,2.774 0 0 0 2.775,2.774 h 8.324 a 2.774,2.774 0 0 0 2.774,-2.774 V 96.278 c 0,-0.82 1.032,-1.181 1.544,-0.541 l 25.163,31.615 a 3.475,3.475 0 0 0 2.709,1.302 h 9.43 a 2.774,2.774 0 0 0 2.775,-2.774 V 75.95 a 2.774,2.774 0 0 0 -2.775,-2.773 h -8.324 a 2.774,2.774 0 0 0 -2.775,2.774 z m 43.529,49.93 V 75.95 a 2.774,2.774 0 0 0 -2.775,-2.773 h -8.15 a 2.774,2.774 0 0 0 -2.776,2.774 v 49.929 a 2.774,2.774 0 0 0 2.775,2.774 h 8.15 a 2.774,2.774 0 0 0 2.776,-2.774 z M 144.251,73.177 H 97.775 A 2.774,2.774 0 0 0 95,75.95 v 7.454 a 2.782,2.782 0 0 0 2.775,2.774 h 16.301 v 39.701 a 2.774,2.774 0 0 0 2.775,2.774 h 8.324 a 2.774,2.774 0 0 0 2.775,-2.774 v -39.7 h 16.301 a 2.774,2.774 0 0 0 2.775,-2.775 V 75.95 a 2.774,2.774 0 0 0 -2.775,-2.774 z m 114.097,36.003 c 8.221,-1.755 14.388,-9.057 14.388,-17.8 0,-9.762 -7.688,-17.73 -17.342,-18.182 v -0.021 h -33.643 a 2.774,2.774 0 0 0 -2.775,2.774 v 49.929 a 2.774,2.774 0 0 0 2.775,2.774 h 8.324 a 2.774,2.774 0 0 0 2.775,-2.774 v -14.563 c 0,-0.957 0.777,-1.734 1.734,-1.734 h 4.405 c 1.613,0 3.149,0.68 4.235,1.873 l 14.4,15.835 a 4.167,4.167 0 0 0 3.08,1.363 h 11.559 c 1.508,0 2.297,-1.793 1.278,-2.906 z M 232.85,95.194 v -7.628 c 0,-0.957 0.777,-1.734 1.734,-1.734 h 20.81 v 0.063 c 2.941,0.421 5.203,2.429 5.203,5.485 0,3.056 -2.262,5.064 -5.203,5.485 v 0.063 h -20.81 A 1.735,1.735 0 0 1 232.85,95.194 Z M 180.356,72.83 c -15.325,0 -28.441,12.764 -28.441,28.085 0,15.32 13.116,28.085 28.441,28.085 15.325,0 28.44,-12.765 28.44,-28.085 0,-15.32 -13.115,-28.085 -28.44,-28.085 z m 0,42.647 c -7.662,0 -13.874,-6.903 -13.874,-14.562 0,-7.66 6.212,-14.563 13.874,-14.563 7.661,0 13.873,6.903 13.873,14.563 0,7.659 -6.212,14.562 -13.873,14.562 z"
       inkscape:connector-curvature="0"
       style="fill:#26273a" />
    <path
       id="path4"
       d="m 126.669,61.047 c -0.229,-0.144 -0.468,-0.179 -0.728,-0.248 -12.295,-3.006 -16.128,-16.801 -8.684,-26.471 8.626,-11.205 9.596,-20.178 4.392,-32.894 a 0.527,0.527 0 0 0 -0.534,-0.319 l -0.018,0.001 a 0.539,0.539 0 0 0 -0.453,0.455 c -1.849,12.687 -13.606,24.26 -17.858,35.895 -5.844,15.657 8.495,25.582 23.696,24.612 l 0.018,-0.001 a 0.504,0.504 0 0 0 0.458,-0.382 c 0.104,-0.28 -0.059,-0.503 -0.289,-0.648 z"
       inkscape:connector-curvature="0"
       style="clip-rule:evenodd;fill:#26273a;fill-rule:evenodd" />
    <path
       id="path6"
       d="m 130.357,22.553 c -0.054,-0.213 -0.172,-0.33 -0.3,-0.338 l -0.054,0.005 c -0.143,0.03 -0.27,0.24 -0.286,0.495 -0.398,5.31 -3.887,8.334 -5.62,11.088 -2.724,4.376 -7.074,7.965 -3.18,20.702 0.053,0.195 0.171,0.312 0.297,0.302 l 0.072,-0.006 c 0.141,-0.048 0.251,-0.256 0.267,-0.511 0.251,-4.185 3.761,-7.657 5.428,-10.333 2.663,-4.244 6.872,-8.434 3.376,-21.404 z m 6.953,14.409 c -0.029,-0.125 -0.108,-0.209 -0.18,-0.203 l -0.036,0.003 c -0.089,0.026 -0.17,0.141 -0.175,0.305 -0.291,3.306 -2.264,5.118 -3.358,6.822 -1.737,2.7 -6.413,5.622 -4.11,13.575 0.029,0.125 0.107,0.191 0.179,0.185 l 0.036,-0.003 c 0.088,-0.025 0.168,-0.159 0.173,-0.322 0.213,-3.373 3.533,-5.132 5.42,-7.119 2.138,-2.242 4.095,-5.141 2.051,-13.243 z"
       inkscape:connector-curvature="0"
       style="clip-rule:evenodd;fill:#26273a;fill-rule:evenodd" />
  </g>
</svg>
